<?xml version="1.0" standalone="no"?><svg xmlns="http://www.w3.org/2000/svg" viewBox="0 0 1440 320"><path fill="#222254" fill-opacity="1" d="M0,160L18.5,138.7C36.9,117,74,75,111,90.7C147.7,107,185,181,222,218.7C258.5,256,295,256,332,218.7C369.2,181,406,107,443,85.3C480,64,517,96,554,96C590.8,96,628,64,665,85.3C701.5,107,738,181,775,192C812.3,203,849,149,886,144C923.1,139,960,181,997,197.3C1033.8,213,1071,203,1108,181.3C1144.6,160,1182,128,1218,112C1255.4,96,1292,96,1329,90.7C1366.2,85,1403,75,1422,69.3L1440,64L1440,320L1421.5,320C1403.1,320,1366,320,1329,320C1292.3,320,1255,320,1218,320C1181.5,320,1145,320,1108,320C1070.8,320,1034,320,997,320C960,320,923,320,886,320C849.2,320,812,320,775,320C738.5,320,702,320,665,320C627.7,320,591,320,554,320C516.9,320,480,320,443,320C406.2,320,369,320,332,320C295.4,320,258,320,222,320C184.6,320,148,320,111,320C73.8,320,37,320,18,320L0,320Z"></path></svg>