<?xml version="1.0" standalone="no"?><svg xmlns="http://www.w3.org/2000/svg" viewBox="0 0 1440 320"><path fill="#222254" fill-opacity="1" d="M0,64L14.1,64C28.2,64,56,64,85,106.7C112.9,149,141,235,169,261.3C197.6,288,226,256,254,229.3C282.4,203,311,181,339,154.7C367.1,128,395,96,424,85.3C451.8,75,480,85,508,74.7C536.5,64,565,32,593,21.3C621.2,11,649,21,678,69.3C705.9,117,734,203,762,234.7C790.6,267,819,245,847,213.3C875.3,181,904,139,932,117.3C960,96,988,96,1016,106.7C1044.7,117,1073,139,1101,170.7C1129.4,203,1158,245,1186,266.7C1214.1,288,1242,288,1271,266.7C1298.8,245,1327,203,1355,176C1383.5,149,1412,139,1426,133.3L1440,128L1440,320L1425.9,320C1411.8,320,1384,320,1355,320C1327.1,320,1299,320,1271,320C1242.4,320,1214,320,1186,320C1157.6,320,1129,320,1101,320C1072.9,320,1045,320,1016,320C988.2,320,960,320,932,320C903.5,320,875,320,847,320C818.8,320,791,320,762,320C734.1,320,706,320,678,320C649.4,320,621,320,593,320C564.7,320,536,320,508,320C480,320,452,320,424,320C395.3,320,367,320,339,320C310.6,320,282,320,254,320C225.9,320,198,320,169,320C141.2,320,113,320,85,320C56.5,320,28,320,14,320L0,320Z"></path></svg>