<?xml version="1.0" standalone="no"?><svg xmlns="http://www.w3.org/2000/svg" viewBox="0 0 1440 320"><path fill="#303060" fill-opacity="1" d="M0,224L14.1,224C28.2,224,56,224,85,224C112.9,224,141,224,169,229.3C197.6,235,226,245,254,229.3C282.4,213,311,171,339,176C367.1,181,395,235,424,261.3C451.8,288,480,288,508,288C536.5,288,565,288,593,250.7C621.2,213,649,139,678,96C705.9,53,734,43,762,37.3C790.6,32,819,32,847,69.3C875.3,107,904,181,932,197.3C960,213,988,171,1016,138.7C1044.7,107,1073,85,1101,101.3C1129.4,117,1158,171,1186,208C1214.1,245,1242,267,1271,277.3C1298.8,288,1327,288,1355,288C1383.5,288,1412,288,1426,288L1440,288L1440,320L1425.9,320C1411.8,320,1384,320,1355,320C1327.1,320,1299,320,1271,320C1242.4,320,1214,320,1186,320C1157.6,320,1129,320,1101,320C1072.9,320,1045,320,1016,320C988.2,320,960,320,932,320C903.5,320,875,320,847,320C818.8,320,791,320,762,320C734.1,320,706,320,678,320C649.4,320,621,320,593,320C564.7,320,536,320,508,320C480,320,452,320,424,320C395.3,320,367,320,339,320C310.6,320,282,320,254,320C225.9,320,198,320,169,320C141.2,320,113,320,85,320C56.5,320,28,320,14,320L0,320Z"></path></svg>